<?xml version="1.0" encoding="UTF-8"?>
<svg xmlns="http://www.w3.org/2000/svg" width="1440" height="1258" viewBox="0 0 1440 1258">
  <defs>
    <style>
      @import url('https://fonts.googleapis.com/css2?family=Inter:wght@300;400;500;600;700&amp;display=swap');
    </style>
  </defs>
  <rect x="0" y="0" width="1440" height="1258" fill="#f7f7f2"/>
  <g transform="translate(0, 0)"><rect width="1440" height="64" fill="#ffffff"/><line x1="0" y1="64" x2="1440" y2="64" stroke="rgba(0, 0, 0, 0.06)" stroke-width="1"/><rect x="24" y="14" width="100" height="36" rx="8" fill="rgb(176, 196, 127)" opacity="0.25"/><text x="46" y="38" font-family="Inter,sans-serif" font-size="15" font-weight="700" fill="#0f172a">iCare</text><text x="160" y="38" font-family="Inter,sans-serif" font-size="14" fill="#0f172a" opacity="1.0" font-weight="600">Dashboard</text><rect x="160" y="52" width="72" height="2" rx="1" fill="rgb(176, 196, 127)"/><text x="265" y="38" font-family="Inter,sans-serif" font-size="14" fill="#0f172a" opacity="0.65">Verifications</text><text x="370" y="38" font-family="Inter,sans-serif" font-size="14" fill="#0f172a" opacity="0.65">Users</text><text x="475" y="38" font-family="Inter,sans-serif" font-size="14" fill="#0f172a" opacity="0.65">Safeguarding</text><rect x="560" y="16" width="240" height="32" rx="8" fill="#0f172a" opacity="0.06"/><text x="572" y="37" font-family="Inter,sans-serif" font-size="13" fill="#0f172a" opacity="0.35">Search...</text><rect x="1304" y="16" width="32" height="32" rx="8" fill="#0f172a" opacity="0.06"/><text x="1313" y="38" font-family="Inter,sans-serif" font-size="16" fill="#0f172a" opacity="0.6">&#x1F514;</text><circle cx="1332" cy="20" r="9" fill="#dc2626"/><text x="1328" y="24" font-family="Inter,sans-serif" font-size="10" fill="white" font-weight="700">3</text><circle cx="1384" cy="32" r="16" fill="rgb(176, 196, 127)" opacity="0.35"/><text x="1404" y="37" font-family="Inter,sans-serif" font-size="13" fill="#0f172a">Admin Sarah</text></g>
  <g transform="translate(0, 64)"><rect x="24" y="0" width="1392" height="80" rx="12" fill="#fee2e2" stroke="#dc2626" stroke-width="1.5"/><rect x="24" y="0" width="4" height="80" rx="2" fill="#dc2626"/><circle cx="56" cy="40" r="14" fill="#dc2626" opacity="0.2"/><text x="50" y="45" font-family="Inter,sans-serif" font-size="16">&#x26D4;</text><text x="80" y="28" font-family="Inter,sans-serif" font-size="15" font-weight="600" fill="#991b1b">URGENT SAFEGUARDING REPORT</text><text x="80" y="48" font-family="Inter,sans-serif" font-size="13" fill="#991b1b" opacity="0.85">Report #SR-00423 submitted 35 minutes ago requires immediate review</text><text x="80" y="68" font-family="Inter,sans-serif" font-size="13" font-weight="600" fill="#991b1b" text-decoration="underline">Review Report Now</text></g>
  <g transform="translate(0, 160)"><g transform="translate(24, 24)"><g transform="translate(0, 0)"><rect x="0" y="0" width="960" height="290" rx="18" fill="rgba(255, 255, 255, 0.55)" stroke="rgba(15, 23, 42, 0.10)" stroke-width="1"/><text x="24" y="40" font-family="Inter,sans-serif" font-size="18" font-weight="600" fill="#0f172a">Verification Queue</text><text x="936" y="40" font-family="Inter,sans-serif" font-size="14" fill="rgb(176, 196, 127)" text-anchor="end">View Queue</text><text x="24" y="62" font-family="Inter,sans-serif" font-size="14" fill="rgba(15, 23, 42, 0.72)">Caregivers awaiting admin review</text><g transform="translate(24, 86)"><g transform="translate(0, 0)"><text x="0" y="16" font-family="Inter,sans-serif" font-size="14" fill="rgba(15, 23, 42, 0.72)">Pending Verifications</text><text x="912" y="16" font-family="Inter,sans-serif" font-size="14" font-weight="600" fill="#0f172a" text-anchor="end">12 caregivers</text></g><g transform="translate(0, 40)"><g transform="translate(0, 0)"><text x="0" y="16" font-family="Inter,sans-serif" font-size="13" fill="rgba(15, 23, 42, 0.72)">Identity: 8 pending</text></g><g transform="translate(309.3333333333333, 0)"><text x="0" y="16" font-family="Inter,sans-serif" font-size="13" fill="rgba(15, 23, 42, 0.72)">Right to Work: 4 pending</text></g><g transform="translate(618.6666666666666, 0)"><text x="0" y="16" font-family="Inter,sans-serif" font-size="13" fill="rgba(15, 23, 42, 0.72)">DBS (Voluntary): 3 pending</text></g></g><g transform="translate(0, 80)"><circle cx="8" cy="14" r="6" fill="#ef4444"/><text x="22" y="18" font-family="Inter,sans-serif" font-size="13" fill="rgba(15, 23, 42, 0.72)">3 over 48h SLA</text></g><g transform="translate(0, 120)"><text x="0" y="16" font-family="Inter,sans-serif" font-size="14" fill="rgba(15, 23, 42, 0.72)">Average Wait Time</text><text x="912" y="16" font-family="Inter,sans-serif" font-size="14" font-weight="600" fill="#0f172a" text-anchor="end">18 hours</text></g></g><g transform="translate(24, 234)"><rect x="0" y="0" width="200" height="40" rx="10" fill="rgb(176, 196, 127)" opacity="1"/><text x="100" y="25" font-family="Inter,sans-serif" font-size="14" font-weight="500" fill="white" text-anchor="middle">Review Queue</text></g></g><g transform="translate(0, 314)"><rect x="0" y="0" width="960" height="330" rx="18" fill="rgba(255, 255, 255, 0.55)" stroke="rgba(15, 23, 42, 0.10)" stroke-width="1"/><text x="24" y="40" font-family="Inter,sans-serif" font-size="18" font-weight="600" fill="#0f172a">Safeguarding Reports</text><text x="936" y="40" font-family="Inter,sans-serif" font-size="14" fill="rgb(176, 196, 127)" text-anchor="end">View Reports</text><text x="24" y="62" font-family="Inter,sans-serif" font-size="14" fill="rgba(15, 23, 42, 0.72)">Active safety concerns requiring attention</text><g transform="translate(24, 86)"><g transform="translate(0, 0)"><text x="0" y="16" font-family="Inter,sans-serif" font-size="14" fill="rgba(15, 23, 42, 0.72)">Active Reports</text><text x="912" y="16" font-family="Inter,sans-serif" font-size="14" font-weight="600" fill="#0f172a" text-anchor="end">2 cases</text></g><g transform="translate(0, 40)"><circle cx="8" cy="14" r="6" fill="#f59e0b"/><text x="22" y="18" font-family="Inter,sans-serif" font-size="13" fill="rgba(15, 23, 42, 0.72)">Urgent (High Severity)</text><text x="912" y="18" font-family="Inter,sans-serif" font-size="13" font-weight="600" fill="#f59e0b" text-anchor="end">1 report</text></g><g transform="translate(0, 80)"><circle cx="8" cy="14" r="5" fill="rgb(176, 196, 127)" opacity="0.4"/><line x1="8" y1="22" x2="8" y2="45" stroke="rgb(176, 196, 127)" stroke-width="1" opacity="0.2"/><text x="24" y="12" font-family="Inter,sans-serif" font-size="13" fill="#0f172a">Report #SR-00421 resolved (outcome: no action)</text><text x="24" y="28" font-family="Inter,sans-serif" font-size="11" fill="rgba(15, 23, 42, 0.72)">Feb 6</text><circle cx="8" cy="50" r="5" fill="rgb(176, 196, 127)" opacity="0.4"/><line x1="8" y1="58" x2="8" y2="81" stroke="rgb(176, 196, 127)" stroke-width="1" opacity="0.2"/><text x="24" y="48" font-family="Inter,sans-serif" font-size="13" fill="#0f172a">Report #SR-00420 escalated to SAB</text><text x="24" y="64" font-family="Inter,sans-serif" font-size="11" fill="rgba(15, 23, 42, 0.72)">Feb 5</text><circle cx="8" cy="86" r="5" fill="rgb(176, 196, 127)" opacity="0.4"/><text x="24" y="84" font-family="Inter,sans-serif" font-size="13" fill="#0f172a">Report #SR-00419 resolved (user suspended)</text><text x="24" y="100" font-family="Inter,sans-serif" font-size="11" fill="rgba(15, 23, 42, 0.72)">Feb 3</text></g></g><g transform="translate(24, 274)"><rect x="0" y="0" width="200" height="40" rx="10" fill="rgb(176, 196, 127)" opacity="1"/><text x="100" y="25" font-family="Inter,sans-serif" font-size="14" font-weight="500" fill="white" text-anchor="middle">View Reports</text></g></g><g transform="translate(0, 668)"><rect x="0" y="0" width="960" height="318" rx="18" fill="rgba(255, 255, 255, 0.55)" stroke="rgba(15, 23, 42, 0.10)" stroke-width="1"/><text x="24" y="40" font-family="Inter,sans-serif" font-size="18" font-weight="600" fill="#0f172a">Recent Activity</text><text x="936" y="40" font-family="Inter,sans-serif" font-size="14" fill="rgb(176, 196, 127)" text-anchor="end">View Full Audit Log</text><text x="24" y="62" font-family="Inter,sans-serif" font-size="14" fill="rgba(15, 23, 42, 0.72)">Last 24 hours</text><g transform="translate(24, 86)"><rect x="0" y="0" width="160" height="36" rx="8" fill="white" stroke="rgba(15, 23, 42, 0.10)" stroke-width="1"/><text x="12" y="23" font-family="Inter,sans-serif" font-size="13" fill="rgba(15, 23, 42, 0.72)">Filter: &#x25BE;</text></g><g transform="translate(24, 122)"><circle cx="8" cy="14" r="5" fill="rgb(176, 196, 127)" opacity="0.4"/><line x1="8" y1="22" x2="8" y2="45" stroke="rgb(176, 196, 127)" stroke-width="1" opacity="0.2"/><text x="24" y="12" font-family="Inter,sans-serif" font-size="13" fill="#0f172a">Admin Sarah approved caregiver verification:</text><text x="24" y="28" font-family="Inter,sans-serif" font-size="11" fill="rgba(15, 23, 42, 0.72)">John Smith (#4523) — Today, 14:32</text><circle cx="8" cy="50" r="5" fill="rgb(176, 196, 127)" opacity="0.4"/><line x1="8" y1="58" x2="8" y2="81" stroke="rgb(176, 196, 127)" stroke-width="1" opacity="0.2"/><text x="24" y="48" font-family="Inter,sans-serif" font-size="13" fill="#0f172a">Booking #7821 completed successfully</text><text x="24" y="64" font-family="Inter,sans-serif" font-size="11" fill="rgba(15, 23, 42, 0.72)">(Jane D. → Mary K.) — Today, 14:15</text><circle cx="8" cy="86" r="5" fill="rgb(176, 196, 127)" opacity="0.4"/><line x1="8" y1="94" x2="8" y2="117" stroke="rgb(176, 196, 127)" stroke-width="1" opacity="0.2"/><text x="24" y="84" font-family="Inter,sans-serif" font-size="13" fill="#0f172a">Admin Sarah rejected caregiver verification:</text><text x="24" y="100" font-family="Inter,sans-serif" font-size="11" fill="rgba(15, 23, 42, 0.72)">David Jones (#4522) - ID expired — Today, 13:47</text><circle cx="8" cy="122" r="5" fill="rgb(176, 196, 127)" opacity="0.4"/><line x1="8" y1="130" x2="8" y2="153" stroke="rgb(176, 196, 127)" stroke-width="1" opacity="0.2"/><text x="24" y="120" font-family="Inter,sans-serif" font-size="13" fill="#0f172a">Dispute raised on Booking #7803 by</text><text x="24" y="136" font-family="Inter,sans-serif" font-size="11" fill="rgba(15, 23, 42, 0.72)">Tom H. — Today, 12:05</text><circle cx="8" cy="158" r="5" fill="rgb(176, 196, 127)" opacity="0.4"/><text x="24" y="156" font-family="Inter,sans-serif" font-size="13" fill="#0f172a">Admin Sarah resolved dispute on Booking #7789</text><text x="24" y="172" font-family="Inter,sans-serif" font-size="11" fill="rgba(15, 23, 42, 0.72)">- Partial refund (50%) — Today, 11:23</text></g></g></g><g transform="translate(1012, 24)"><g transform="translate(0, 0)"><rect x="0" y="0" width="403" height="382" rx="18" fill="rgba(255, 255, 255, 0.55)" stroke="rgba(15, 23, 42, 0.10)" stroke-width="1"/><text x="24" y="40" font-family="Inter,sans-serif" font-size="18" font-weight="600" fill="#0f172a">Quick Actions</text><g transform="translate(24, 62)"><g transform="translate(0, 0)"><rect x="0" y="0" width="355" height="40" rx="10" fill="rgb(176, 196, 127)" opacity="0.12"/><text x="177.5" y="25" font-family="Inter,sans-serif" font-size="14" font-weight="500" fill="rgb(176, 196, 127)" text-anchor="middle">Review Next Verification</text></g><g transform="translate(0, 48)"><rect x="0" y="0" width="355" height="40" rx="10" fill="rgb(176, 196, 127)" opacity="0.12"/><text x="177.5" y="25" font-family="Inter,sans-serif" font-size="14" font-weight="500" fill="rgb(176, 196, 127)" text-anchor="middle">Search User</text></g><g transform="translate(0, 96)"><rect x="0" y="0" width="355" height="40" rx="10" fill="rgb(176, 196, 127)" opacity="0.12"/><text x="177.5" y="25" font-family="Inter,sans-serif" font-size="14" font-weight="500" fill="rgb(176, 196, 127)" text-anchor="middle">View Today's Bookings</text></g><g transform="translate(0, 144)"><rect x="0" y="0" width="355" height="40" rx="10" fill="rgb(176, 196, 127)" opacity="0.12"/><text x="177.5" y="25" font-family="Inter,sans-serif" font-size="14" font-weight="500" fill="rgb(176, 196, 127)" text-anchor="middle">Emergency Contacts</text></g></g><g transform="translate(24, 246)"><line x1="0" y1="8" x2="355" y2="8" stroke="rgba(15, 23, 42, 0.10)" stroke-width="1"/></g><g transform="translate(24, 262)"><text x="0" y="16" font-family="Inter,sans-serif" font-size="16.8" fill="#0f172a" font-weight="500">Resources</text></g><g transform="translate(24, 286)"><text x="0" y="16" font-family="Inter,sans-serif" font-size="14" fill="rgb(176, 196, 127)" text-decoration="underline">Safeguarding Policy</text><text x="0" y="40" font-family="Inter,sans-serif" font-size="14" fill="rgb(176, 196, 127)" text-decoration="underline">Admin Guide</text><text x="0" y="64" font-family="Inter,sans-serif" font-size="14" fill="rgb(176, 196, 127)" text-decoration="underline">Contact Support</text></g></g><g transform="translate(0, 406)"><rect x="0" y="0" width="403" height="542" rx="18" fill="rgba(255, 255, 255, 0.55)" stroke="rgba(15, 23, 42, 0.10)" stroke-width="1"/><text x="24" y="40" font-family="Inter,sans-serif" font-size="18" font-weight="600" fill="#0f172a">Platform Health</text><g transform="translate(24, 62)"><g transform="translate(0, 0)"><rect x="0" y="0" width="355" height="100" rx="12" fill="rgba(255, 255, 255, 0.55)" stroke="rgba(15, 23, 42, 0.10)" stroke-width="1"/><text x="16" y="28" font-family="Inter,sans-serif" font-size="13" fill="rgba(15, 23, 42, 0.72)">Active Bookings</text><text x="16" y="56" font-family="Inter,sans-serif" font-size="24" font-weight="700" fill="#0f172a">45</text><text x="16" y="76" font-family="Inter,sans-serif" font-size="12" fill="rgba(15, 23, 42, 0.72)">0 issues</text></g><g transform="translate(0, 112)"><rect x="0" y="0" width="355" height="100" rx="12" fill="rgba(255, 255, 255, 0.55)" stroke="rgba(15, 23, 42, 0.10)" stroke-width="1"/><text x="16" y="28" font-family="Inter,sans-serif" font-size="13" fill="rgba(15, 23, 42, 0.72)">Bookings This Week</text><text x="16" y="56" font-family="Inter,sans-serif" font-size="24" font-weight="700" fill="#0f172a">67</text><text x="16" y="76" font-family="Inter,sans-serif" font-size="12" fill="#16a34a">↑5% from last week</text></g><g transform="translate(0, 224)"><rect x="0" y="0" width="355" height="100" rx="12" fill="rgba(255, 255, 255, 0.55)" stroke="rgba(15, 23, 42, 0.10)" stroke-width="1"/><text x="16" y="28" font-family="Inter,sans-serif" font-size="13" fill="rgba(15, 23, 42, 0.72)">Active Caregivers</text><text x="16" y="56" font-family="Inter,sans-serif" font-size="24" font-weight="700" fill="#0f172a">89</text><text x="16" y="76" font-family="Inter,sans-serif" font-size="12" fill="rgba(15, 23, 42, 0.72)">12 pending</text></g><g transform="translate(0, 336)"><rect x="0" y="0" width="355" height="100" rx="12" fill="rgba(255, 255, 255, 0.55)" stroke="rgba(15, 23, 42, 0.10)" stroke-width="1"/><text x="16" y="28" font-family="Inter,sans-serif" font-size="13" fill="rgba(15, 23, 42, 0.72)">Active Care Receivers</text><text x="16" y="56" font-family="Inter,sans-serif" font-size="24" font-weight="700" fill="#0f172a">156</text><text x="16" y="76" font-family="Inter,sans-serif" font-size="12" fill="rgba(15, 23, 42, 0.72)">89 payment added</text></g></g><g transform="translate(24, 498)"><rect x="0" y="0" width="355" height="28" rx="6" fill="#dcfce7"/><circle cx="16" cy="14" r="5" fill="#16a34a"/><text x="28" y="18" font-family="Inter,sans-serif" font-size="12" font-weight="500" fill="#166534">All systems operational</text></g></g></g></g>
  <g transform="translate(0, 1194)"><line x1="0" y1="0" x2="1440" y2="0" stroke="rgba(0, 0, 0, 0.06)" stroke-width="1"/><text x="24" y="34" font-family="Inter,sans-serif" font-size="13" fill="rgba(15, 23, 42, 0.72)">Privacy Policy</text><text x="164" y="34" font-family="Inter,sans-serif" font-size="13" fill="rgba(15, 23, 42, 0.72)">Terms of Service</text><text x="304" y="34" font-family="Inter,sans-serif" font-size="13" fill="rgba(15, 23, 42, 0.72)">Safeguarding</text><text x="444" y="34" font-family="Inter,sans-serif" font-size="13" fill="rgba(15, 23, 42, 0.72)">Contact Us</text><text x="584" y="34" font-family="Inter,sans-serif" font-size="13" fill="rgba(15, 23, 42, 0.72)">Help Centre</text><text x="1416" y="34" font-family="Inter,sans-serif" font-size="13" fill="rgba(15, 23, 42, 0.72)" text-anchor="end">© 2026 iCare Platform. All rights reserved.</text></g>
</svg>