<?xml version="1.0" encoding="UTF-8"?>
<svg xmlns="http://www.w3.org/2000/svg" width="768" height="872" viewBox="0 0 768 872">
  <defs>
    <style>
      @import url('https://fonts.googleapis.com/css2?family=Inter:wght@300;400;500;600;700&amp;display=swap');
    </style>
  </defs>
  <rect x="0" y="0" width="768" height="872" fill="#f7f7f2"/>
  <g transform="translate(0, 0)"><rect width="768" height="64" fill="#ffffff"/><line x1="0" y1="64" x2="768" y2="64" stroke="rgba(0, 0, 0, 0.06)" stroke-width="1"/><rect x="24" y="14" width="100" height="36" rx="8" fill="rgb(176, 196, 127)" opacity="0.25"/><text x="46" y="38" font-family="Inter,sans-serif" font-size="15" font-weight="700" fill="#0f172a">iCare</text><text x="160" y="38" font-family="Inter,sans-serif" font-size="14" fill="#0f172a" opacity="0.65">Dashboard</text><text x="265" y="38" font-family="Inter,sans-serif" font-size="14" fill="#0f172a" opacity="0.65">Bookings</text><text x="370" y="38" font-family="Inter,sans-serif" font-size="14" fill="#0f172a" opacity="0.65">Messages</text><text x="475" y="38" font-family="Inter,sans-serif" font-size="14" fill="#0f172a" opacity="0.65">Profile</text><rect x="632" y="16" width="32" height="32" rx="8" fill="#0f172a" opacity="0.06"/><text x="641" y="38" font-family="Inter,sans-serif" font-size="16" fill="#0f172a" opacity="0.6">&#x1F514;</text><circle cx="660" cy="20" r="9" fill="#dc2626"/><text x="656" y="24" font-family="Inter,sans-serif" font-size="10" fill="white" font-weight="700">2</text><circle cx="712" cy="32" r="16" fill="rgb(176, 196, 127)" opacity="0.35"/><text x="732" y="37" font-family="Inter,sans-serif" font-size="13" fill="#0f172a">Sarah</text></g>
  <g transform="translate(0, 64)"><text x="24" y="32" font-family="Inter,sans-serif" font-size="14" font-weight="400" fill="rgb(119, 141, 67)">Home</text><text x="64" y="32" font-family="Inter,sans-serif" font-size="14" fill="rgba(15, 23, 42, 0.72)">&#x203A;</text><text x="80" y="32" font-family="Inter,sans-serif" font-size="14" font-weight="600" fill="#0f172a">Search Caregivers</text></g>
  <g transform="translate(0, 120)"><rect x="24" y="24" width="720" height="56" rx="12" fill="rgba(255, 255, 255, 0.55)" stroke="rgba(15, 23, 42, 0.12)" stroke-width="1"/><rect x="36" y="34" width="324" height="36" rx="12" fill="#ffffff" stroke="rgba(15, 23, 42, 0.12)" stroke-width="1"/><text x="48" y="57" font-family="Inter,sans-serif" font-size="14" fill="rgba(15, 23, 42, 0.72)">Enter your postcode (e.g., SW1A 1AA)</text><rect x="372" y="34" width="180" height="36" rx="12" fill="#ffffff" stroke="rgba(15, 23, 42, 0.12)" stroke-width="1"/><text x="384" y="57" font-family="Inter,sans-serif" font-size="14" fill="#0f172a">10 miles &#x25BE;</text><rect x="564" y="34" width="168" height="36" rx="12" fill="rgb(176, 196, 127)"/><text x="648" y="57" font-family="Inter,sans-serif" font-size="14" font-weight="600" fill="white" text-anchor="middle">Search</text></g>
  <g transform="translate(0, 224)"><g transform="translate(24, 16)"><text x="0" y="16" font-family="Inter,sans-serif" font-size="19.52" fill="#0f172a">24 caregivers found</text></g><g transform="translate(24, 48)"><text x="0" y="16" font-family="Inter,sans-serif" font-size="16.8" fill="rgba(15, 23, 42, 0.72)">Within 10 miles of SW1A 1AA</text></g><g transform="translate(24, 80)"><rect x="0" y="0" width="112" height="28" rx="14" fill="rgb(176, 196, 127)" opacity="0.1" stroke="rgba(15, 23, 42, 0.10)" stroke-width="1"/><text x="10" y="18" font-family="Inter,sans-serif" font-size="12" fill="rgb(176, 196, 127)">DBS Verified</text><text x="96" y="18" font-family="Inter,sans-serif" font-size="12" fill="rgba(15, 23, 42, 0.72)">&#xD7;</text><rect x="120" y="0" width="168" height="28" rx="14" fill="rgb(176, 196, 127)" opacity="0.1" stroke="rgba(15, 23, 42, 0.10)" stroke-width="1"/><text x="130" y="18" font-family="Inter,sans-serif" font-size="12" fill="rgb(176, 196, 127)">Morning availability</text><text x="272" y="18" font-family="Inter,sans-serif" font-size="12" fill="rgba(15, 23, 42, 0.72)">&#xD7;</text></g><g transform="translate(24, 116)"><rect x="0" y="0" width="240" height="36" rx="8" fill="white" stroke="rgba(15, 23, 42, 0.10)" stroke-width="1"/><text x="12" y="23" font-family="Inter,sans-serif" font-size="13" fill="rgba(15, 23, 42, 0.72)">Sort by: Distance (nearest first) &#x25BE;</text></g></g>
  <g transform="translate(0, 400)"><g transform="translate(24, 16)"></g><g transform="translate(541, 16)"><g transform="translate(0, 0)"><rect x="0" y="0" width="202" height="280" rx="16" fill="rgba(255, 255, 255, 0.55)" stroke="rgba(15, 23, 42, 0.10)" stroke-width="1"/><circle cx="101" cy="48" r="32" fill="rgb(176, 196, 127)" opacity="0.25"/><text x="101" y="100" font-family="Inter,sans-serif" font-size="15" font-weight="600" fill="#0f172a" text-anchor="middle">Caregiver 1</text><text x="101" y="118" font-family="Inter,sans-serif" font-size="12" fill="rgba(15, 23, 42, 0.72)" text-anchor="middle">Location &#x2022; 1.2 mi</text><text x="56" y="140" font-family="Inter,sans-serif" font-size="14" fill="#f59e0b">&#x2605;</text><text x="74" y="140" font-family="Inter,sans-serif" font-size="14" fill="#f59e0b">&#x2605;</text><text x="92" y="140" font-family="Inter,sans-serif" font-size="14" fill="#f59e0b">&#x2605;</text><text x="110" y="140" font-family="Inter,sans-serif" font-size="14" fill="#f59e0b">&#x2605;</text><text x="128" y="140" font-family="Inter,sans-serif" font-size="14" fill="#f59e0b">&#x2605;</text><text x="101" y="164" font-family="Inter,sans-serif" font-size="18" font-weight="700" fill="#0f172a" text-anchor="middle">&#xA3;17/hr</text><rect x="16" y="176" width="81.6" height="22" rx="11" fill="rgb(176, 196, 127)" opacity="0.12"/><text x="56.8" y="191" font-family="Inter,sans-serif" font-size="11" fill="rgb(176, 196, 127)" text-anchor="middle">Companionship</text><rect x="16" y="228" width="170" height="36" rx="8" fill="rgb(176, 196, 127)"/><text x="101" y="252" font-family="Inter,sans-serif" font-size="13" font-weight="500" fill="white" text-anchor="middle">View Profile</text><text x="170" y="28" font-family="Inter,sans-serif" font-size="18" fill="rgba(15, 23, 42, 0.72)" opacity="0.4">&#x2661;</text></g></g></g>
  <g transform="translate(0, 712)"><rect x="230" y="30" width="80" height="36" rx="8" fill="transparent" stroke="rgba(15, 23, 42, 0.10)" stroke-width="1"/><text x="270" y="54" font-family="Inter,sans-serif" font-size="13" fill="rgba(15, 23, 42, 0.72)" text-anchor="middle">&#x2190; Prev</text><rect x="318" y="30" width="36" height="36" rx="8" fill="rgb(176, 196, 127)" /><text x="336" y="54" font-family="Inter,sans-serif" font-size="14" font-weight="600" fill="white" text-anchor="middle">1</text><rect x="362" y="30" width="36" height="36" rx="8" fill="transparent" stroke="rgba(15, 23, 42, 0.10)" stroke-width="1"/><text x="380" y="54" font-family="Inter,sans-serif" font-size="14" font-weight="400" fill="#0f172a" text-anchor="middle">2</text><rect x="406" y="30" width="36" height="36" rx="8" fill="transparent" stroke="rgba(15, 23, 42, 0.10)" stroke-width="1"/><text x="424" y="54" font-family="Inter,sans-serif" font-size="14" font-weight="400" fill="#0f172a" text-anchor="middle">3</text><rect x="458" y="30" width="80" height="36" rx="8" fill="transparent" stroke="rgba(15, 23, 42, 0.10)" stroke-width="1"/><text x="498" y="54" font-family="Inter,sans-serif" font-size="13" fill="rgba(15, 23, 42, 0.72)" text-anchor="middle">Next &#x2192;</text></g>
  <g transform="translate(0, 808)"><line x1="0" y1="0" x2="768" y2="0" stroke="rgba(0, 0, 0, 0.06)" stroke-width="1"/><text x="24" y="34" font-family="Inter,sans-serif" font-size="13" fill="rgba(15, 23, 42, 0.72)">Privacy Policy</text><text x="164" y="34" font-family="Inter,sans-serif" font-size="13" fill="rgba(15, 23, 42, 0.72)">Terms of Service</text><text x="304" y="34" font-family="Inter,sans-serif" font-size="13" fill="rgba(15, 23, 42, 0.72)">Safeguarding</text><text x="444" y="34" font-family="Inter,sans-serif" font-size="13" fill="rgba(15, 23, 42, 0.72)">Contact Us</text><text x="584" y="34" font-family="Inter,sans-serif" font-size="13" fill="rgba(15, 23, 42, 0.72)">Help Centre</text><text x="744" y="34" font-family="Inter,sans-serif" font-size="13" fill="rgba(15, 23, 42, 0.72)" text-anchor="end">© 2026 iCare Platform. All rights reserved.</text></g>
</svg>