<?xml version="1.0" encoding="UTF-8"?>
<svg xmlns="http://www.w3.org/2000/svg" width="1440" height="1702" viewBox="0 0 1440 1702">
  <defs>
    <style>
      @import url('https://fonts.googleapis.com/css2?family=Inter:wght@300;400;500;600;700&amp;display=swap');
    </style>
  </defs>
  <rect x="0" y="0" width="1440" height="1702" fill="#f7f7f2"/>
  <g transform="translate(0, 0)"><rect width="1440" height="64" fill="#ffffff"/><line x1="0" y1="64" x2="1440" y2="64" stroke="rgba(0, 0, 0, 0.06)" stroke-width="1"/><rect x="24" y="14" width="100" height="36" rx="8" fill="rgb(176, 196, 127)" opacity="0.25"/><text x="46" y="38" font-family="Inter,sans-serif" font-size="15" font-weight="700" fill="#0f172a">iCare</text><text x="1416" y="38" font-family="Inter,sans-serif" font-size="14" fill="rgb(119, 141, 67)" text-anchor="end">Already have an account? Log in</text></g>
  <g transform="translate(0, 64)"><g transform="translate(24, 32)"><text x="0" y="16" font-family="Inter,sans-serif" font-size="38.4" fill="#0f172a">Create Your Account</text></g><g transform="translate(24, 76)"><text x="0" y="16" font-family="Inter,sans-serif" font-size="19.52" fill="rgba(15, 23, 42, 0.72)">Find trusted caregivers for companionship and support</text></g><g transform="translate(24, 120)"><rect x="471" y="0" width="176" height="36" rx="18" fill="#dcfce7"/><text x="483" y="23" font-family="Inter,sans-serif" font-size="13" fill="#166534">🔒 256-bit Encrypted</text><rect x="659" y="0" width="152" height="36" rx="18" fill="#dcfce7"/><text x="671" y="23" font-family="Inter,sans-serif" font-size="13" fill="#166534">✓ GDPR Compliant</text><rect x="823" y="0" width="96" height="36" rx="18" fill="#dcfce7"/><text x="835" y="23" font-family="Inter,sans-serif" font-size="13" fill="#166534">🚫 No Spam</text></g><g transform="translate(24, 176)"><circle cx="616" cy="22" r="18" fill="#2563eb" stroke="transparent" stroke-width="2"/><text x="616" y="27" font-family="Inter,sans-serif" font-size="14" font-weight="700" fill="#ffffff" text-anchor="middle">1</text><text x="616" y="58" font-family="Inter,sans-serif" font-size="12" font-weight="600" fill="#0f172a" text-anchor="middle">Personal Details</text><line x1="638" y1="22" x2="754" y2="22" stroke="rgba(15, 23, 42, 0.10)" stroke-width="2"/><circle cx="776" cy="22" r="18" fill="transparent" stroke="rgba(15, 23, 42, 0.10)" stroke-width="2"/><text x="776" y="27" font-family="Inter,sans-serif" font-size="14" font-weight="700" fill="rgba(15, 23, 42, 0.72)" text-anchor="middle">2</text><text x="776" y="58" font-family="Inter,sans-serif" font-size="12" font-weight="400" fill="rgba(15, 23, 42, 0.72)" text-anchor="middle">Emergency Contact</text></g><g transform="translate(24, 266)"><text x="0" y="16" font-family="Inter,sans-serif" font-size="16" fill="rgba(15, 23, 42, 0.72)">PERSONAL DETAILS</text></g><g transform="translate(24, 310)"><text x="0" y="14" font-family="Inter,sans-serif" font-size="13" font-weight="500" fill="#0f172a">First name *</text><rect x="0" y="22" width="1392" height="36" rx="8" fill="white" stroke="rgba(15, 23, 42, 0.10)" stroke-width="1"/><text x="12" y="45" font-family="Inter,sans-serif" font-size="14" fill="rgba(15, 23, 42, 0.72)">e.g., Margaret</text></g><g transform="translate(24, 390)"><text x="0" y="14" font-family="Inter,sans-serif" font-size="13" font-weight="500" fill="#0f172a">Last name *</text><rect x="0" y="22" width="1392" height="36" rx="8" fill="white" stroke="rgba(15, 23, 42, 0.10)" stroke-width="1"/><text x="12" y="45" font-family="Inter,sans-serif" font-size="14" fill="rgba(15, 23, 42, 0.72)">e.g., Johnson</text></g><g transform="translate(24, 470)"><text x="0" y="14" font-family="Inter,sans-serif" font-size="13" font-weight="500" fill="#0f172a">Email address *</text><rect x="0" y="22" width="1392" height="36" rx="8" fill="white" stroke="rgba(15, 23, 42, 0.10)" stroke-width="1"/><text x="12" y="45" font-family="Inter,sans-serif" font-size="14" fill="rgba(15, 23, 42, 0.72)">your.email@example.com</text></g><g transform="translate(24, 550)"><text x="0" y="14" font-family="Inter,sans-serif" font-size="13" font-weight="500" fill="#0f172a">Create a password *</text><rect x="0" y="22" width="1392" height="36" rx="8" fill="white" stroke="rgba(15, 23, 42, 0.10)" stroke-width="1"/><text x="12" y="45" font-family="Inter,sans-serif" font-size="14" fill="rgba(15, 23, 42, 0.72)">At least 8 characters</text><text x="0" y="62" font-family="Inter,sans-serif" font-size="11" fill="rgba(15, 23, 42, 0.72)">At least 8 characters, 1 uppercase, 1 number</text></g><g transform="translate(24, 646)"><rect x="0" y="0" width="345" height="8" rx="4" fill="#f59e0b"/><rect x="349" y="0" width="345" height="8" rx="4" fill="#f59e0b"/><rect x="698" y="0" width="345" height="8" rx="4" fill="#e5e7eb"/><rect x="1047" y="0" width="345" height="8" rx="4" fill="#e5e7eb"/><text x="0" y="24" font-family="Inter,sans-serif" font-size="11" font-weight="600" fill="#f59e0b">Fair</text></g><g transform="translate(24, 694)"><text x="0" y="14" font-family="Inter,sans-serif" font-size="13" font-weight="500" fill="#0f172a">Mobile phone number *</text><rect x="0" y="22" width="1392" height="36" rx="8" fill="white" stroke="rgba(15, 23, 42, 0.10)" stroke-width="1"/><text x="12" y="45" font-family="Inter,sans-serif" font-size="14" fill="rgba(15, 23, 42, 0.72)">07xxx xxxxxx</text><text x="0" y="62" font-family="Inter,sans-serif" font-size="11" fill="rgba(15, 23, 42, 0.72)">We'll send a verification code to this number</text></g><g transform="translate(24, 790)"><text x="0" y="14" font-family="Inter,sans-serif" font-size="13" font-weight="500" fill="#0f172a">Date of birth *</text><rect x="0" y="22" width="1392" height="36" rx="8" fill="white" stroke="rgba(15, 23, 42, 0.10)" stroke-width="1"/><text x="12" y="45" font-family="Inter,sans-serif" font-size="14" fill="rgba(15, 23, 42, 0.72)">DD/MM/YYYY</text><text x="0" y="62" font-family="Inter,sans-serif" font-size="11" fill="rgba(15, 23, 42, 0.72)">You must be 65 or over, or have documented care needs</text></g><g transform="translate(24, 886)"><text x="0" y="14" font-family="Inter,sans-serif" font-size="13" font-weight="500" fill="#0f172a">Postcode *</text><rect x="0" y="22" width="1392" height="36" rx="8" fill="white" stroke="rgba(15, 23, 42, 0.10)" stroke-width="1"/><text x="12" y="45" font-family="Inter,sans-serif" font-size="14" fill="rgba(15, 23, 42, 0.72)">e.g., SW1A 1AA</text><text x="0" y="62" font-family="Inter,sans-serif" font-size="11" fill="rgba(15, 23, 42, 0.72)">We'll show you caregivers in your area</text></g><g transform="translate(24, 982)"><text x="0" y="16" font-family="Inter,sans-serif" font-size="16" fill="rgba(15, 23, 42, 0.72)">EMERGENCY CONTACT</text></g><g transform="translate(24, 1026)"><text x="0" y="16" font-family="Inter,sans-serif" font-size="16" fill="rgba(15, 23, 42, 0.72)">This person will be contacted in case of emergency during care visits</text></g><g transform="translate(24, 1070)"><text x="0" y="14" font-family="Inter,sans-serif" font-size="13" font-weight="500" fill="#0f172a">Emergency contact name *</text><rect x="0" y="22" width="1392" height="36" rx="8" fill="white" stroke="rgba(15, 23, 42, 0.10)" stroke-width="1"/><text x="12" y="45" font-family="Inter,sans-serif" font-size="14" fill="rgba(15, 23, 42, 0.72)">e.g., Sarah Williams</text></g><g transform="translate(24, 1150)"><text x="0" y="14" font-family="Inter,sans-serif" font-size="13" font-weight="500" fill="#0f172a">Emergency contact phone *</text><rect x="0" y="22" width="1392" height="36" rx="8" fill="white" stroke="rgba(15, 23, 42, 0.10)" stroke-width="1"/><text x="12" y="45" font-family="Inter,sans-serif" font-size="14" fill="rgba(15, 23, 42, 0.72)">07xxx xxxxxx</text></g><g transform="translate(24, 1230)"><text x="0" y="14" font-family="Inter,sans-serif" font-size="13" font-weight="500" fill="#0f172a">Relationship to you *</text><rect x="0" y="22" width="1392" height="36" rx="8" fill="white" stroke="rgba(15, 23, 42, 0.10)" stroke-width="1"/><text x="12" y="45" font-family="Inter,sans-serif" font-size="14" fill="rgba(15, 23, 42, 0.72)">Select relationship</text><text x="1372" y="45" font-family="Inter,sans-serif" font-size="12" fill="rgba(15, 23, 42, 0.72)">&#x25BE;</text></g><g transform="translate(24, 1310)"><rect x="0" y="0" width="18" height="18" rx="3" fill="white" stroke="rgba(15, 23, 42, 0.10)" stroke-width="2"/><text x="26" y="14" font-family="Inter,sans-serif" font-size="14" fill="#0f172a">I accept the <tspan fill="#2563eb" text-decoration="underline">Terms of Service</tspan> <tspan fill="#dc2626">*</tspan></text><rect x="0" y="36" width="18" height="18" rx="3" fill="white" stroke="rgba(15, 23, 42, 0.10)" stroke-width="2"/><text x="26" y="50" font-family="Inter,sans-serif" font-size="14" fill="#0f172a">I accept the <tspan fill="#2563eb" text-decoration="underline">Privacy Policy</tspan> <tspan fill="#dc2626">*</tspan></text><rect x="0" y="72" width="18" height="18" rx="3" fill="white" stroke="rgba(15, 23, 42, 0.10)" stroke-width="2"/><text x="26" y="86" font-family="Inter,sans-serif" font-size="14" fill="#0f172a">I'd like to receive helpful tips and updates via email</text></g><g transform="translate(24, 1430)"><rect x="0" y="0" width="200" height="40" rx="10" fill="rgb(176, 196, 127)" opacity="1"/><text x="100" y="25" font-family="Inter,sans-serif" font-size="14" font-weight="500" fill="white" text-anchor="middle">Create Account</text></g><g transform="translate(24, 1490)"><text x="0" y="16" font-family="Inter,sans-serif" font-size="16.8" fill="rgb(119, 141, 67)" text-decoration="underline">Already have an account? Log in →</text></g><g transform="translate(24, 1534)"><text x="0" y="16" font-family="Inter,sans-serif" font-size="16" fill="rgb(119, 141, 67)" text-decoration="underline">Register as a Caregiver instead →</text></g></g>
  <g transform="translate(0, 1638)"><line x1="0" y1="0" x2="1440" y2="0" stroke="rgba(0, 0, 0, 0.06)" stroke-width="1"/><text x="24" y="34" font-family="Inter,sans-serif" font-size="13" fill="rgba(15, 23, 42, 0.72)">Privacy Policy</text><text x="164" y="34" font-family="Inter,sans-serif" font-size="13" fill="rgba(15, 23, 42, 0.72)">Terms of Service</text><text x="304" y="34" font-family="Inter,sans-serif" font-size="13" fill="rgba(15, 23, 42, 0.72)">Safeguarding</text><text x="444" y="34" font-family="Inter,sans-serif" font-size="13" fill="rgba(15, 23, 42, 0.72)">Contact Us</text><text x="584" y="34" font-family="Inter,sans-serif" font-size="13" fill="rgba(15, 23, 42, 0.72)">Help Centre</text><text x="1416" y="34" font-family="Inter,sans-serif" font-size="13" fill="rgba(15, 23, 42, 0.72)" text-anchor="end">© 2026 iCare Platform</text></g>
</svg>