<?xml version="1.0" encoding="UTF-8"?>
<svg xmlns="http://www.w3.org/2000/svg" width="768" height="914" viewBox="0 0 768 914">
  <defs>
    <style>
      @import url('https://fonts.googleapis.com/css2?family=Inter:wght@300;400;500;600;700&amp;display=swap');
    </style>
  </defs>
  <rect x="0" y="0" width="768" height="914" fill="#f7f7f2"/>
  <g transform="translate(0, 0)"><rect width="768" height="64" fill="#ffffff"/><line x1="0" y1="64" x2="768" y2="64" stroke="rgba(0, 0, 0, 0.06)" stroke-width="1"/><rect x="24" y="14" width="100" height="36" rx="8" fill="rgb(176, 196, 127)" opacity="0.25"/><text x="46" y="38" font-family="Inter,sans-serif" font-size="15" font-weight="700" fill="#0f172a">iCare</text><text x="744" y="38" font-family="Inter,sans-serif" font-size="14" fill="rgb(119, 141, 67)" text-anchor="end">Save and Continue Later</text></g>
  <g transform="translate(0, 64)"><g transform="translate(24, 32)"><circle cx="72" cy="22" r="18" fill="#2563eb" stroke="transparent" stroke-width="2"/><text x="72" y="27" font-family="Inter,sans-serif" font-size="14" font-weight="700" fill="#ffffff" text-anchor="middle">&#x2713;</text><text x="72" y="58" font-family="Inter,sans-serif" font-size="12" font-weight="400" fill="rgba(15, 23, 42, 0.72)" text-anchor="middle">Profile</text><line x1="94" y1="22" x2="194" y2="22" stroke="#2563eb" stroke-width="2"/><circle cx="216" cy="22" r="18" fill="#2563eb" stroke="transparent" stroke-width="2"/><text x="216" y="27" font-family="Inter,sans-serif" font-size="14" font-weight="700" fill="#ffffff" text-anchor="middle">&#x2713;</text><text x="216" y="58" font-family="Inter,sans-serif" font-size="12" font-weight="400" fill="rgba(15, 23, 42, 0.72)" text-anchor="middle">Services</text><line x1="238" y1="22" x2="338" y2="22" stroke="#2563eb" stroke-width="2"/><circle cx="360" cy="22" r="18" fill="#2563eb" stroke="transparent" stroke-width="2"/><text x="360" y="27" font-family="Inter,sans-serif" font-size="14" font-weight="700" fill="#ffffff" text-anchor="middle">3</text><text x="360" y="58" font-family="Inter,sans-serif" font-size="12" font-weight="600" fill="#0f172a" text-anchor="middle">Availability</text><line x1="382" y1="22" x2="482" y2="22" stroke="rgba(15, 23, 42, 0.10)" stroke-width="2"/><circle cx="504" cy="22" r="18" fill="transparent" stroke="rgba(15, 23, 42, 0.10)" stroke-width="2"/><text x="504" y="27" font-family="Inter,sans-serif" font-size="14" font-weight="700" fill="rgba(15, 23, 42, 0.72)" text-anchor="middle">4</text><text x="504" y="58" font-family="Inter,sans-serif" font-size="12" font-weight="400" fill="rgba(15, 23, 42, 0.72)" text-anchor="middle">Rate</text><line x1="526" y1="22" x2="626" y2="22" stroke="rgba(15, 23, 42, 0.10)" stroke-width="2"/><circle cx="648" cy="22" r="18" fill="transparent" stroke="rgba(15, 23, 42, 0.10)" stroke-width="2"/><text x="648" y="27" font-family="Inter,sans-serif" font-size="14" font-weight="700" fill="rgba(15, 23, 42, 0.72)" text-anchor="middle">5</text><text x="648" y="58" font-family="Inter,sans-serif" font-size="12" font-weight="400" fill="rgba(15, 23, 42, 0.72)" text-anchor="middle">Verification</text></g><g transform="translate(24, 122)"><text x="0" y="16" font-family="Inter,sans-serif" font-size="28.8" fill="#0f172a">Set your availability</text></g><g transform="translate(24, 166)"><text x="0" y="16" font-family="Inter,sans-serif" font-size="16.8" fill="rgba(15, 23, 42, 0.72)">Set your recurring weekly schedule. You can update this anytime from your dashboard.</text></g><g transform="translate(24, 210)"><rect x="238" y="0" width="244" height="352" rx="8" fill="rgba(255, 255, 255, 0.55)" stroke="rgba(15, 23, 42, 0.10)" stroke-width="1"/><text x="362" y="24" font-family="Inter,sans-serif" font-size="12" font-weight="600" fill="rgba(15, 23, 42, 0.72)" text-anchor="middle">Morning</text><text x="410" y="24" font-family="Inter,sans-serif" font-size="12" font-weight="600" fill="rgba(15, 23, 42, 0.72)" text-anchor="middle">Afternoon</text><text x="458" y="24" font-family="Inter,sans-serif" font-size="12" font-weight="600" fill="rgba(15, 23, 42, 0.72)" text-anchor="middle">Evening</text><text x="246" y="61" font-family="Inter,sans-serif" font-size="13" fill="#0f172a">Monday</text><rect x="342" y="36" width="40" height="40" rx="6" fill="#2563eb" opacity="0.15" stroke="#2563eb" stroke-width="2"/><text x="362" y="61" font-family="Inter,sans-serif" font-size="14" fill="#2563eb" text-anchor="middle" font-weight="700">&#x2713;</text><rect x="390" y="36" width="40" height="40" rx="6" fill="#2563eb" opacity="0.15" stroke="#2563eb" stroke-width="2"/><text x="410" y="61" font-family="Inter,sans-serif" font-size="14" fill="#2563eb" text-anchor="middle" font-weight="700">&#x2713;</text><rect x="438" y="36" width="40" height="40" rx="6" fill="none" stroke="rgba(15, 23, 42, 0.10)" stroke-width="1"/><text x="246" y="105" font-family="Inter,sans-serif" font-size="13" fill="#0f172a">Tuesday</text><rect x="342" y="80" width="40" height="40" rx="6" fill="#2563eb" opacity="0.15" stroke="#2563eb" stroke-width="2"/><text x="362" y="105" font-family="Inter,sans-serif" font-size="14" fill="#2563eb" text-anchor="middle" font-weight="700">&#x2713;</text><rect x="390" y="80" width="40" height="40" rx="6" fill="#2563eb" opacity="0.15" stroke="#2563eb" stroke-width="2"/><text x="410" y="105" font-family="Inter,sans-serif" font-size="14" fill="#2563eb" text-anchor="middle" font-weight="700">&#x2713;</text><rect x="438" y="80" width="40" height="40" rx="6" fill="none" stroke="rgba(15, 23, 42, 0.10)" stroke-width="1"/><text x="246" y="149" font-family="Inter,sans-serif" font-size="13" fill="#0f172a">Wednesday</text><rect x="342" y="124" width="40" height="40" rx="6" fill="none" stroke="rgba(15, 23, 42, 0.10)" stroke-width="1"/><rect x="390" y="124" width="40" height="40" rx="6" fill="#2563eb" opacity="0.15" stroke="#2563eb" stroke-width="2"/><text x="410" y="149" font-family="Inter,sans-serif" font-size="14" fill="#2563eb" text-anchor="middle" font-weight="700">&#x2713;</text><rect x="438" y="124" width="40" height="40" rx="6" fill="none" stroke="rgba(15, 23, 42, 0.10)" stroke-width="1"/><text x="246" y="193" font-family="Inter,sans-serif" font-size="13" fill="#0f172a">Thursday</text><rect x="342" y="168" width="40" height="40" rx="6" fill="#2563eb" opacity="0.15" stroke="#2563eb" stroke-width="2"/><text x="362" y="193" font-family="Inter,sans-serif" font-size="14" fill="#2563eb" text-anchor="middle" font-weight="700">&#x2713;</text><rect x="390" y="168" width="40" height="40" rx="6" fill="#2563eb" opacity="0.15" stroke="#2563eb" stroke-width="2"/><text x="410" y="193" font-family="Inter,sans-serif" font-size="14" fill="#2563eb" text-anchor="middle" font-weight="700">&#x2713;</text><rect x="438" y="168" width="40" height="40" rx="6" fill="none" stroke="rgba(15, 23, 42, 0.10)" stroke-width="1"/><text x="246" y="237" font-family="Inter,sans-serif" font-size="13" fill="#0f172a">Friday</text><rect x="342" y="212" width="40" height="40" rx="6" fill="#2563eb" opacity="0.15" stroke="#2563eb" stroke-width="2"/><text x="362" y="237" font-family="Inter,sans-serif" font-size="14" fill="#2563eb" text-anchor="middle" font-weight="700">&#x2713;</text><rect x="390" y="212" width="40" height="40" rx="6" fill="none" stroke="rgba(15, 23, 42, 0.10)" stroke-width="1"/><rect x="438" y="212" width="40" height="40" rx="6" fill="none" stroke="rgba(15, 23, 42, 0.10)" stroke-width="1"/><text x="246" y="281" font-family="Inter,sans-serif" font-size="13" fill="#0f172a">Saturday</text><rect x="342" y="256" width="40" height="40" rx="6" fill="none" stroke="rgba(15, 23, 42, 0.10)" stroke-width="1"/><rect x="390" y="256" width="40" height="40" rx="6" fill="none" stroke="rgba(15, 23, 42, 0.10)" stroke-width="1"/><rect x="438" y="256" width="40" height="40" rx="6" fill="none" stroke="rgba(15, 23, 42, 0.10)" stroke-width="1"/><text x="246" y="325" font-family="Inter,sans-serif" font-size="13" fill="#0f172a">Sunday</text><rect x="342" y="300" width="40" height="40" rx="6" fill="none" stroke="rgba(15, 23, 42, 0.10)" stroke-width="1"/><rect x="390" y="300" width="40" height="40" rx="6" fill="none" stroke="rgba(15, 23, 42, 0.10)" stroke-width="1"/><rect x="438" y="300" width="40" height="40" rx="6" fill="none" stroke="rgba(15, 23, 42, 0.10)" stroke-width="1"/></g><g transform="translate(24, 582)"><text x="0" y="16" font-family="Inter,sans-serif" font-size="16" fill="rgba(15, 23, 42, 0.72)">Select at least one time slot</text></g><g transform="translate(24, 626)"><rect x="0" y="0" width="200" height="40" rx="10" fill="#0f172a" opacity="0.08"/><text x="100" y="25" font-family="Inter,sans-serif" font-size="14" font-weight="500" fill="#0f172a" text-anchor="middle">← Back</text></g><g transform="translate(24, 686)"><rect x="0" y="0" width="200" height="40" rx="10" fill="rgb(176, 196, 127)" opacity="1"/><text x="100" y="25" font-family="Inter,sans-serif" font-size="14" font-weight="500" fill="white" text-anchor="middle">Next →</text></g><g transform="translate(24, 746)"><text x="0" y="16" font-family="Inter,sans-serif" font-size="16" fill="rgb(119, 141, 67)" text-decoration="underline">Save and Continue Later →</text></g></g>
  <g transform="translate(0, 850)"><line x1="0" y1="0" x2="768" y2="0" stroke="rgba(0, 0, 0, 0.06)" stroke-width="1"/><text x="24" y="34" font-family="Inter,sans-serif" font-size="13" fill="rgba(15, 23, 42, 0.72)">Privacy Policy</text><text x="164" y="34" font-family="Inter,sans-serif" font-size="13" fill="rgba(15, 23, 42, 0.72)">Terms of Service</text><text x="304" y="34" font-family="Inter,sans-serif" font-size="13" fill="rgba(15, 23, 42, 0.72)">Safeguarding</text><text x="444" y="34" font-family="Inter,sans-serif" font-size="13" fill="rgba(15, 23, 42, 0.72)">Contact Us</text><text x="584" y="34" font-family="Inter,sans-serif" font-size="13" fill="rgba(15, 23, 42, 0.72)">Help Centre</text><text x="744" y="34" font-family="Inter,sans-serif" font-size="13" fill="rgba(15, 23, 42, 0.72)" text-anchor="end">© 2026 iCare Platform</text></g>
</svg>