<?xml version="1.0" encoding="UTF-8"?>
<svg xmlns="http://www.w3.org/2000/svg" width="1440" height="1448" viewBox="0 0 1440 1448">
  <defs>
    <style>
      @import url('https://fonts.googleapis.com/css2?family=Inter:wght@300;400;500;600;700&amp;display=swap');
    </style>
  </defs>
  <rect x="0" y="0" width="1440" height="1448" fill="#f7f7f2"/>
  <g transform="translate(0, 0)"><rect width="1440" height="64" fill="#ffffff"/><line x1="0" y1="64" x2="1440" y2="64" stroke="rgba(0, 0, 0, 0.06)" stroke-width="1"/><rect x="24" y="14" width="100" height="36" rx="8" fill="rgb(176, 196, 127)" opacity="0.25"/><text x="46" y="38" font-family="Inter,sans-serif" font-size="15" font-weight="700" fill="#0f172a">iCare</text><text x="160" y="38" font-family="Inter,sans-serif" font-size="14" fill="#0f172a" opacity="0.65">Dashboard</text><text x="265" y="38" font-family="Inter,sans-serif" font-size="14" fill="#0f172a" opacity="1.0" font-weight="600">My Bookings</text><rect x="265" y="52" width="88" height="2" rx="1" fill="rgb(176, 196, 127)"/><text x="370" y="38" font-family="Inter,sans-serif" font-size="14" fill="#0f172a" opacity="0.65">Messages</text><text x="475" y="38" font-family="Inter,sans-serif" font-size="14" fill="#0f172a" opacity="0.65">Search</text><rect x="1304" y="16" width="32" height="32" rx="8" fill="#0f172a" opacity="0.06"/><text x="1313" y="38" font-family="Inter,sans-serif" font-size="16" fill="#0f172a" opacity="0.6">&#x1F514;</text><circle cx="1332" cy="20" r="9" fill="#dc2626"/><text x="1328" y="24" font-family="Inter,sans-serif" font-size="10" fill="white" font-weight="700">1</text><circle cx="1384" cy="32" r="16" fill="rgb(176, 196, 127)" opacity="0.35"/><text x="1404" y="37" font-family="Inter,sans-serif" font-size="13" fill="#0f172a">Margaret Thompson</text></g>
  <g transform="translate(0, 64)"><text x="24" y="32" font-family="Inter,sans-serif" font-size="14" font-weight="400" fill="rgb(119, 141, 67)">Dashboard</text><text x="104" y="32" font-family="Inter,sans-serif" font-size="14" fill="rgba(15, 23, 42, 0.72)">&#x203A;</text><text x="120" y="32" font-family="Inter,sans-serif" font-size="14" font-weight="600" fill="#0f172a">My Bookings</text></g>
  <g transform="translate(0, 120)"><g transform="translate(24, 32)"><text x="0" y="16" font-family="Inter,sans-serif" font-size="14" fill="#cccccc">My Bookings</text></g><g transform="translate(24, 72)"><text x="0" y="16" font-family="Inter,sans-serif" font-size="14" fill="#cccccc">View and manage all your bookings</text></g></g>
  <g transform="translate(0, 232)"><g transform="translate(24, 32)"><rect x="0" y="0" width="1392" height="44" rx="0" fill="white"/><line x1="0" y1="43" x2="1392" y2="43" stroke="rgba(15, 23, 42, 0.10)" stroke-width="1"/><rect x="0" y="41" width="140" height="3" fill="rgb(176, 196, 127)"/><text x="70" y="27" font-family="Inter,sans-serif" font-size="13" font-weight="600" fill="rgb(176, 196, 127)" text-anchor="middle">All (12)</text><text x="210" y="27" font-family="Inter,sans-serif" font-size="13" font-weight="400" fill="rgba(15, 23, 42, 0.72)" text-anchor="middle">Upcoming (2)</text><text x="350" y="27" font-family="Inter,sans-serif" font-size="13" font-weight="400" fill="rgba(15, 23, 42, 0.72)" text-anchor="middle">Pending (1)</text><text x="490" y="27" font-family="Inter,sans-serif" font-size="13" font-weight="400" fill="rgba(15, 23, 42, 0.72)" text-anchor="middle">Completed (7)</text><text x="630" y="27" font-family="Inter,sans-serif" font-size="13" font-weight="400" fill="rgba(15, 23, 42, 0.72)" text-anchor="middle">Cancelled (2)</text></g></g>
  <g transform="translate(0, 324)"><g transform="translate(24, 32)"><text x="0" y="16" font-family="Inter,sans-serif" font-size="14" fill="#cccccc">12 bookings</text></g><g transform="translate(24, 72)"><rect x="0" y="0" width="240" height="36" rx="8" fill="white" stroke="rgba(15, 23, 42, 0.10)" stroke-width="1"/><text x="12" y="23" font-family="Inter,sans-serif" font-size="13" fill="rgba(15, 23, 42, 0.72)">Sort by: Date (newest) &#x25BE;</text></g></g>
  <g transform="translate(0, 448)"><g transform="translate(24, 32)"><rect x="0" y="0" width="1392" height="120" rx="8" fill="white" stroke="rgba(15, 23, 42, 0.10)" stroke-width="1"/><circle cx="38" cy="60" r="22" fill="rgb(176, 196, 127)" opacity="0.2"/><text x="38" y="64" font-family="Inter,sans-serif" font-size="13" fill="rgb(176, 196, 127)" text-anchor="middle" font-weight="600">S</text><text x="72" y="28" font-family="Inter,sans-serif" font-size="14" font-weight="600" fill="#0f172a">Sarah Johnson</text><rect x="188" y="16" width="79" height="20" rx="10" fill="#DCFCE7"/><text x="196" y="30" font-family="Inter,sans-serif" font-size="11" font-weight="500" fill="#166534">Confirmed</text><text x="72" y="50" font-family="Inter,sans-serif" font-size="12" fill="rgba(15, 23, 42, 0.72)">📅 Thu 20 Feb 2026  ⏰ 10:00 AM - 2:00 PM  ⏱ 4 hours</text><text x="72" y="68" font-family="Inter,sans-serif" font-size="11" fill="rgba(15, 23, 42, 0.72)">Companionship, Light housework</text><text x="1376" y="28" font-family="Inter,sans-serif" font-size="16" font-weight="700" fill="#0f172a" text-anchor="end">£75.60</text><rect x="72" y="84" width="104" height="26" rx="6" fill="white" stroke="rgba(15, 23, 42, 0.10)" stroke-width="1"/><text x="124" y="101" font-family="Inter,sans-serif" font-size="11" font-weight="500" fill="#0f172a" text-anchor="middle">View Details</text><rect x="184" y="84" width="69" height="26" rx="6" fill="white" stroke="rgba(15, 23, 42, 0.10)" stroke-width="1"/><text x="218.5" y="101" font-family="Inter,sans-serif" font-size="11" font-weight="500" fill="#0f172a" text-anchor="middle">Message</text><rect x="261" y="84" width="62" height="26" rx="6" fill="white" stroke="rgba(15, 23, 42, 0.10)" stroke-width="1"/><text x="292" y="101" font-family="Inter,sans-serif" font-size="11" font-weight="500" fill="#0f172a" text-anchor="middle">Cancel</text><rect x="0" y="132" width="1392" height="120" rx="8" fill="white" stroke="rgba(15, 23, 42, 0.10)" stroke-width="1"/><circle cx="38" cy="192" r="22" fill="rgb(176, 196, 127)" opacity="0.2"/><text x="38" y="196" font-family="Inter,sans-serif" font-size="13" fill="rgb(176, 196, 127)" text-anchor="middle" font-weight="600">A</text><text x="72" y="160" font-family="Inter,sans-serif" font-size="14" font-weight="600" fill="#0f172a">Anna Chen</text><rect x="156" y="148" width="65" height="20" rx="10" fill="#FEF3C7"/><text x="164" y="162" font-family="Inter,sans-serif" font-size="11" font-weight="500" fill="#92400E">Pending</text><text x="72" y="182" font-family="Inter,sans-serif" font-size="12" fill="rgba(15, 23, 42, 0.72)">📅 Sat 22 Feb 2026  ⏰ 2:00 PM - 5:00 PM  ⏱ 3 hours</text><text x="72" y="200" font-family="Inter,sans-serif" font-size="11" fill="rgba(15, 23, 42, 0.72)">Companionship, Shopping assistance</text><text x="1376" y="160" font-family="Inter,sans-serif" font-size="16" font-weight="700" fill="#0f172a" text-anchor="end">£56.70</text><rect x="72" y="216" width="104" height="26" rx="6" fill="white" stroke="rgba(15, 23, 42, 0.10)" stroke-width="1"/><text x="124" y="233" font-family="Inter,sans-serif" font-size="11" font-weight="500" fill="#0f172a" text-anchor="middle">View Details</text><rect x="184" y="216" width="118" height="26" rx="6" fill="white" stroke="rgba(15, 23, 42, 0.10)" stroke-width="1"/><text x="243" y="233" font-family="Inter,sans-serif" font-size="11" font-weight="500" fill="#0f172a" text-anchor="middle">Cancel Request</text><text x="1376" y="232" font-family="Inter,sans-serif" font-size="11" font-weight="600" fill="#F59E0B" text-anchor="end">⏳ 18h 32m remaining</text><rect x="0" y="264" width="1392" height="120" rx="8" fill="white" stroke="rgba(15, 23, 42, 0.10)" stroke-width="1"/><circle cx="38" cy="324" r="22" fill="rgb(176, 196, 127)" opacity="0.2"/><text x="38" y="328" font-family="Inter,sans-serif" font-size="13" fill="rgb(176, 196, 127)" text-anchor="middle" font-weight="600">S</text><text x="72" y="292" font-family="Inter,sans-serif" font-size="14" font-weight="600" fill="#0f172a">Sarah Johnson</text><rect x="188" y="280" width="79" height="20" rx="10" fill="#DCFCE7"/><text x="196" y="294" font-family="Inter,sans-serif" font-size="11" font-weight="500" fill="#166534">Confirmed</text><text x="72" y="314" font-family="Inter,sans-serif" font-size="12" fill="rgba(15, 23, 42, 0.72)">📅 Thu 27 Feb 2026  ⏰ 10:00 AM - 1:00 PM  ⏱ 3 hours</text><text x="72" y="332" font-family="Inter,sans-serif" font-size="11" fill="rgba(15, 23, 42, 0.72)">Companionship</text><text x="1376" y="292" font-family="Inter,sans-serif" font-size="16" font-weight="700" fill="#0f172a" text-anchor="end">£56.70</text><rect x="72" y="348" width="104" height="26" rx="6" fill="white" stroke="rgba(15, 23, 42, 0.10)" stroke-width="1"/><text x="124" y="365" font-family="Inter,sans-serif" font-size="11" font-weight="500" fill="#0f172a" text-anchor="middle">View Details</text><rect x="184" y="348" width="69" height="26" rx="6" fill="white" stroke="rgba(15, 23, 42, 0.10)" stroke-width="1"/><text x="218.5" y="365" font-family="Inter,sans-serif" font-size="11" font-weight="500" fill="#0f172a" text-anchor="middle">Message</text><rect x="261" y="348" width="62" height="26" rx="6" fill="white" stroke="rgba(15, 23, 42, 0.10)" stroke-width="1"/><text x="292" y="365" font-family="Inter,sans-serif" font-size="11" font-weight="500" fill="#0f172a" text-anchor="middle">Cancel</text><rect x="0" y="396" width="1392" height="120" rx="8" fill="white" stroke="rgba(15, 23, 42, 0.10)" stroke-width="1"/><circle cx="38" cy="456" r="22" fill="rgb(176, 196, 127)" opacity="0.2"/><text x="38" y="460" font-family="Inter,sans-serif" font-size="13" fill="rgb(176, 196, 127)" text-anchor="middle" font-weight="600">M</text><text x="72" y="424" font-family="Inter,sans-serif" font-size="14" font-weight="600" fill="#0f172a">Mary Kelly</text><rect x="164" y="412" width="79" height="20" rx="10" fill="#DCFCE7"/><text x="172" y="426" font-family="Inter,sans-serif" font-size="11" font-weight="500" fill="#166534">Completed</text><text x="72" y="446" font-family="Inter,sans-serif" font-size="12" fill="rgba(15, 23, 42, 0.72)">📅 Mon 10 Feb 2026  ⏰ 11:00 AM - 3:00 PM  ⏱ 4 hours</text><text x="72" y="464" font-family="Inter,sans-serif" font-size="11" fill="rgba(15, 23, 42, 0.72)">Companionship, Meal preparation</text><text x="1376" y="424" font-family="Inter,sans-serif" font-size="16" font-weight="700" fill="#0f172a" text-anchor="end">£75.60</text><rect x="72" y="480" width="104" height="26" rx="6" fill="white" stroke="rgba(15, 23, 42, 0.10)" stroke-width="1"/><text x="124" y="497" font-family="Inter,sans-serif" font-size="11" font-weight="500" fill="#0f172a" text-anchor="middle">Leave Review</text><rect x="184" y="480" width="90" height="26" rx="6" fill="white" stroke="rgba(15, 23, 42, 0.10)" stroke-width="1"/><text x="229" y="497" font-family="Inter,sans-serif" font-size="11" font-weight="500" fill="#0f172a" text-anchor="middle">Book Again</text><rect x="282" y="480" width="104" height="26" rx="6" fill="white" stroke="rgba(15, 23, 42, 0.10)" stroke-width="1"/><text x="334" y="497" font-family="Inter,sans-serif" font-size="11" font-weight="500" fill="#0f172a" text-anchor="middle">View Details</text><rect x="0" y="528" width="1392" height="120" rx="8" fill="white" stroke="rgba(15, 23, 42, 0.10)" stroke-width="1"/><circle cx="38" cy="588" r="22" fill="rgb(176, 196, 127)" opacity="0.2"/><text x="38" y="592" font-family="Inter,sans-serif" font-size="13" fill="rgb(176, 196, 127)" text-anchor="middle" font-weight="600">T</text><text x="72" y="556" font-family="Inter,sans-serif" font-size="14" font-weight="600" fill="#0f172a">Tom Richards</text><rect x="180" y="544" width="79" height="20" rx="10" fill="#DCFCE7"/><text x="188" y="558" font-family="Inter,sans-serif" font-size="11" font-weight="500" fill="#166534">Completed</text><text x="72" y="578" font-family="Inter,sans-serif" font-size="12" fill="rgba(15, 23, 42, 0.72)">📅 Fri 7 Feb 2026  ⏰ 9:00 AM - 12:00 PM  ⏱ 3 hours</text><text x="72" y="596" font-family="Inter,sans-serif" font-size="11" fill="rgba(15, 23, 42, 0.72)">Companionship</text><text x="1376" y="556" font-family="Inter,sans-serif" font-size="16" font-weight="700" fill="#0f172a" text-anchor="end">£56.70</text><rect x="72" y="612" width="104" height="26" rx="6" fill="white" stroke="rgba(15, 23, 42, 0.10)" stroke-width="1"/><text x="124" y="629" font-family="Inter,sans-serif" font-size="11" font-weight="500" fill="#0f172a" text-anchor="middle">View Details</text><rect x="0" y="660" width="1392" height="120" rx="8" fill="white" stroke="rgba(15, 23, 42, 0.10)" stroke-width="1"/><circle cx="38" cy="720" r="22" fill="rgb(176, 196, 127)" opacity="0.2"/><text x="38" y="724" font-family="Inter,sans-serif" font-size="13" fill="rgb(176, 196, 127)" text-anchor="middle" font-weight="600">L</text><text x="72" y="688" font-family="Inter,sans-serif" font-size="14" font-weight="600" fill="#0f172a">Lisa Park</text><rect x="156" y="676" width="79" height="20" rx="10" fill="#F3F4F6"/><text x="164" y="690" font-family="Inter,sans-serif" font-size="11" font-weight="500" fill="#6B7280">Cancelled</text><text x="72" y="710" font-family="Inter,sans-serif" font-size="12" fill="rgba(15, 23, 42, 0.72)">📅 Wed 5 Feb 2026  ⏰ 1:00 PM - 4:00 PM  ⏱ 3 hours</text><text x="72" y="728" font-family="Inter,sans-serif" font-size="11" fill="rgba(15, 23, 42, 0.72)">Companionship, Meal preparation</text><text x="1376" y="688" font-family="Inter,sans-serif" font-size="16" font-weight="700" fill="#0f172a" text-anchor="end">£56.70</text><rect x="72" y="744" width="104" height="26" rx="6" fill="white" stroke="rgba(15, 23, 42, 0.10)" stroke-width="1"/><text x="124" y="761" font-family="Inter,sans-serif" font-size="11" font-weight="500" fill="#0f172a" text-anchor="middle">View Details</text></g></g>
  <g transform="translate(0, 1288)"><rect x="588" y="30" width="80" height="36" rx="8" fill="transparent" stroke="rgba(15, 23, 42, 0.10)" stroke-width="1"/><text x="628" y="54" font-family="Inter,sans-serif" font-size="13" fill="rgba(15, 23, 42, 0.72)" text-anchor="middle">&#x2190; Prev</text><rect x="676" y="30" width="36" height="36" rx="8" fill="rgb(176, 196, 127)" /><text x="694" y="54" font-family="Inter,sans-serif" font-size="14" font-weight="600" fill="white" text-anchor="middle">1</text><rect x="720" y="30" width="36" height="36" rx="8" fill="transparent" stroke="rgba(15, 23, 42, 0.10)" stroke-width="1"/><text x="738" y="54" font-family="Inter,sans-serif" font-size="14" font-weight="400" fill="#0f172a" text-anchor="middle">2</text><rect x="772" y="30" width="80" height="36" rx="8" fill="transparent" stroke="rgba(15, 23, 42, 0.10)" stroke-width="1"/><text x="812" y="54" font-family="Inter,sans-serif" font-size="13" fill="rgba(15, 23, 42, 0.72)" text-anchor="middle">Next &#x2192;</text></g>
  <g transform="translate(0, 1384)"><line x1="0" y1="0" x2="1440" y2="0" stroke="rgba(0, 0, 0, 0.06)" stroke-width="1"/><text x="24" y="34" font-family="Inter,sans-serif" font-size="13" fill="rgba(15, 23, 42, 0.72)">Privacy Policy</text><text x="164" y="34" font-family="Inter,sans-serif" font-size="13" fill="rgba(15, 23, 42, 0.72)">Terms of Service</text><text x="304" y="34" font-family="Inter,sans-serif" font-size="13" fill="rgba(15, 23, 42, 0.72)">Safeguarding</text><text x="444" y="34" font-family="Inter,sans-serif" font-size="13" fill="rgba(15, 23, 42, 0.72)">Contact Us</text><text x="584" y="34" font-family="Inter,sans-serif" font-size="13" fill="rgba(15, 23, 42, 0.72)">Help Centre</text><text x="1416" y="34" font-family="Inter,sans-serif" font-size="13" fill="rgba(15, 23, 42, 0.72)" text-anchor="end">© 2026 iCare Platform</text></g>
</svg>