<?xml version="1.0" encoding="UTF-8"?>
<svg xmlns="http://www.w3.org/2000/svg" width="375" height="1180" viewBox="0 0 375 1180">
  <defs>
    <style>
      @import url('https://fonts.googleapis.com/css2?family=Inter:wght@300;400;500;600;700&amp;display=swap');
    </style>
  </defs>
  <rect x="0" y="0" width="375" height="1180" fill="#f7f7f2"/>
  <g transform="translate(0, 0)"><rect width="375" height="64" fill="#ffffff"/><line x1="0" y1="64" x2="375" y2="64" stroke="rgba(0, 0, 0, 0.06)" stroke-width="1"/><rect x="16" y="14" width="80" height="36" rx="8" fill="rgb(176, 196, 127)" opacity="0.25"/><text x="32" y="38" font-family="Inter,sans-serif" font-size="15" font-weight="700" fill="#0f172a">iCare</text><rect x="275" y="16" width="32" height="32" rx="8" fill="#0f172a" opacity="0.06"/><text x="284" y="38" font-family="Inter,sans-serif" font-size="16" fill="#0f172a" opacity="0.6">&#x1F514;</text><circle cx="307" cy="20" r="9" fill="#dc2626"/><text x="303" y="24" font-family="Inter,sans-serif" font-size="10" fill="white" font-weight="700">2</text><rect x="323" y="22" width="20" height="2" rx="1" fill="#0f172a" opacity="0.6"/><rect x="323" y="30" width="20" height="2" rx="1" fill="#0f172a" opacity="0.6"/><rect x="323" y="38" width="20" height="2" rx="1" fill="#0f172a" opacity="0.6"/></g>
  <g transform="translate(0, 64)"><text x="16" y="24" font-family="Inter,sans-serif" font-size="14" font-weight="400" fill="rgb(119, 141, 67)">Dashboard</text><text x="96" y="24" font-family="Inter,sans-serif" font-size="14" fill="rgba(15, 23, 42, 0.72)">&#x203A;</text><text x="112" y="24" font-family="Inter,sans-serif" font-size="14" font-weight="600" fill="#0f172a">Incidents</text></g>
  <g transform="translate(0, 104)"><g transform="translate(16, 8)"><text x="0" y="16" font-family="Inter,sans-serif" font-size="32" fill="#0f172a" font-weight="700">Incident Reports</text></g><g transform="translate(16, 40)"><text x="0" y="16" font-family="Inter,sans-serif" font-size="14" fill="#0f172a">Log and track platform incidents for compliance</text></g></g>
  <g transform="translate(0, 176)"><g transform="translate(16, 16)"><rect x="0" y="0" width="343" height="40" rx="8" fill="white" stroke="rgba(15, 23, 42, 0.10)" stroke-width="1"/><text x="12" y="25" font-family="Inter,sans-serif" font-size="13" fill="rgba(15, 23, 42, 0.72)">&#x1F50D; Search by incident ID, user...</text><rect x="0" y="52" width="343" height="40" rx="8" fill="white" stroke="rgba(15, 23, 42, 0.10)" stroke-width="1"/><text x="12" y="77" font-family="Inter,sans-serif" font-size="13" fill="#0f172a">Category: All &#x25BE;</text><rect x="0" y="104" width="343" height="40" rx="8" fill="white" stroke="rgba(15, 23, 42, 0.10)" stroke-width="1"/><text x="12" y="129" font-family="Inter,sans-serif" font-size="13" fill="#0f172a">Severity: All &#x25BE;</text><rect x="0" y="156" width="343" height="40" rx="8" fill="white" stroke="rgba(15, 23, 42, 0.10)" stroke-width="1"/><text x="12" y="181" font-family="Inter,sans-serif" font-size="13" fill="#0f172a">Status: All &#x25BE;</text><rect x="0" y="208" width="343" height="40" rx="8" fill="white" stroke="rgba(15, 23, 42, 0.10)" stroke-width="1"/><text x="12" y="233" font-family="Inter,sans-serif" font-size="13" fill="#0f172a">Date Range: All &#x25BE;</text><rect x="0" y="260" width="165.5" height="40" rx="8" fill="white" stroke="rgba(15, 23, 42, 0.10)" stroke-width="1"/><text x="82.75" y="285" font-family="Inter,sans-serif" font-size="13" fill="rgba(15, 23, 42, 0.72)" text-anchor="middle">Clear Filters</text><rect x="177.5" y="260" width="165.5" height="40" rx="8" fill="rgb(176, 196, 127)"/><text x="260.25" y="285" font-family="Inter,sans-serif" font-size="13" font-weight="600" fill="white" text-anchor="middle">Apply</text></g></g>
  <g transform="translate(0, 508)"><rect x="16" y="16" width="343" height="140" rx="18" fill="rgba(255, 255, 255, 0.55)" stroke="rgba(15, 23, 42, 0.10)" stroke-width="1"/><circle cx="46" cy="54" r="20" fill="#0f172a" opacity="0.12"/><text x="36" y="94" font-family="Inter,sans-serif" font-size="16" font-weight="600" fill="#0f172a">Total Incidents</text><text x="36" y="116" font-family="Inter,sans-serif" font-size="22" font-weight="700" fill="#0f172a">18</text><text x="36" y="136" font-family="Inter,sans-serif" font-size="12" fill="#0f172a" opacity="0.6">This month</text><rect x="16" y="16" width="343" height="140" rx="18" fill="rgba(255, 255, 255, 0.55)" stroke="rgba(15, 23, 42, 0.10)" stroke-width="1"/><circle cx="46" cy="54" r="20" fill="#0f172a" opacity="0.12"/><text x="36" y="94" font-family="Inter,sans-serif" font-size="16" font-weight="600" fill="#0f172a">Open</text><text x="36" y="116" font-family="Inter,sans-serif" font-size="22" font-weight="700" fill="#0f172a">4</text><text x="36" y="136" font-family="Inter,sans-serif" font-size="12" fill="#0f172a" opacity="0.6">Under investigation</text><rect x="16" y="16" width="343" height="140" rx="18" fill="rgba(255, 255, 255, 0.55)" stroke="rgba(15, 23, 42, 0.10)" stroke-width="1"/><circle cx="46" cy="54" r="20" fill="#0f172a" opacity="0.12"/><text x="36" y="94" font-family="Inter,sans-serif" font-size="16" font-weight="600" fill="#0f172a">Critical</text><text x="36" y="116" font-family="Inter,sans-serif" font-size="22" font-weight="700" fill="#0f172a">1</text><text x="36" y="136" font-family="Inter,sans-serif" font-size="12" fill="#0f172a" opacity="0.6">Urgent action needed</text><rect x="16" y="16" width="343" height="140" rx="18" fill="rgba(255, 255, 255, 0.55)" stroke="rgba(15, 23, 42, 0.10)" stroke-width="1"/><circle cx="46" cy="54" r="20" fill="#0f172a" opacity="0.12"/><text x="36" y="94" font-family="Inter,sans-serif" font-size="16" font-weight="600" fill="#0f172a">Resolved</text><text x="36" y="116" font-family="Inter,sans-serif" font-size="22" font-weight="700" fill="#0f172a">14</text><text x="36" y="136" font-family="Inter,sans-serif" font-size="12" fill="#0f172a" opacity="0.6">Closed this month</text></g>
  <g transform="translate(0, 680)"><g transform="translate(16, 4)"><text x="0" y="16" font-family="Inter,sans-serif" font-size="14" fill="#0f172a">Showing 1-18 of 18 incidents</text></g></g>
  <g transform="translate(0, 716)"><g transform="translate(16, 0)"><rect x="0" y="0" width="343" height="212" rx="8" fill="white" stroke="rgba(15, 23, 42, 0.10)" stroke-width="1"/><rect x="1" y="1" width="341" height="44" rx="8" fill="#F9FAFB"/><rect x="1" y="36" width="341" height="8" fill="#F9FAFB"/><text x="12" y="27" font-family="Inter,sans-serif" font-size="12" font-weight="600" fill="rgba(15, 23, 42, 0.72)">Incident ID</text><text x="65.16666666666666" y="27" font-family="Inter,sans-serif" font-size="12" font-weight="600" fill="rgba(15, 23, 42, 0.72)">Category</text><text x="118.33333333333333" y="27" font-family="Inter,sans-serif" font-size="12" font-weight="600" fill="rgba(15, 23, 42, 0.72)">User Involved</text><text x="171.5" y="27" font-family="Inter,sans-serif" font-size="12" font-weight="600" fill="rgba(15, 23, 42, 0.72)">Severity</text><rect x="1" y="44" width="341" height="56" fill="#FEE2E2"/><line x1="0" y1="100" x2="343" y2="100" stroke="rgba(15, 23, 42, 0.10)" stroke-width="0.5"/><text x="12" y="76" font-family="Inter,sans-serif" font-size="13" fill="#2563EB">INC-2026-018</text><rect x="65.16666666666666" y="62" width="45.166666666666664" height="20" rx="10" fill="#FEE2E2"/><text x="73.16666666666666" y="76" font-family="Inter,sans-serif" font-size="11" font-weight="500" fill="#DC2626">Off-Platform Contact</text><text x="118.33333333333333" y="76" font-family="Inter,sans-serif" font-size="13" fill="#0f172a">Caregiver #4520</text><rect x="171.5" y="62" width="45.166666666666664" height="20" rx="10" fill="#DC2626"/><text x="179.5" y="76" font-family="Inter,sans-serif" font-size="11" font-weight="500" fill="white">Critical</text><rect x="1" y="100" width="341" height="56" fill="#FAFAFA"/><line x1="0" y1="156" x2="343" y2="156" stroke="rgba(15, 23, 42, 0.10)" stroke-width="0.5"/><text x="12" y="132" font-family="Inter,sans-serif" font-size="13" fill="#2563EB">INC-2026-017</text><rect x="65.16666666666666" y="118" width="45.166666666666664" height="20" rx="10" fill="#FEF3C7"/><text x="73.16666666666666" y="132" font-family="Inter,sans-serif" font-size="11" font-weight="500" fill="#92400E">Late Cancellation</text><text x="118.33333333333333" y="132" font-family="Inter,sans-serif" font-size="13" fill="#0f172a">Caregiver #4521</text><rect x="171.5" y="118" width="45.166666666666664" height="20" rx="10" fill="#FEF3C7"/><text x="179.5" y="132" font-family="Inter,sans-serif" font-size="11" font-weight="500" fill="#92400E">Medium</text><line x1="0" y1="212" x2="343" y2="212" stroke="rgba(15, 23, 42, 0.10)" stroke-width="0.5"/><text x="12" y="188" font-family="Inter,sans-serif" font-size="13" fill="#2563EB">INC-2026-016</text><rect x="65.16666666666666" y="174" width="45.166666666666664" height="20" rx="10" fill="#FEF3C7"/><text x="73.16666666666666" y="188" font-family="Inter,sans-serif" font-size="11" font-weight="500" fill="#92400E">Payment Dispute</text><text x="118.33333333333333" y="188" font-family="Inter,sans-serif" font-size="13" fill="#0f172a">Care Receiver #2339</text><rect x="171.5" y="174" width="44" height="20" rx="10" fill="#FED7AA"/><text x="179.5" y="188" font-family="Inter,sans-serif" font-size="11" font-weight="500" fill="#C2410C">High</text><text x="12" y="232" font-family="Inter,sans-serif" font-size="12" fill="rgba(15, 23, 42, 0.72)">Showing 1-18 of 18 incidents</text></g></g>
  <g transform="translate(0, 976)"><rect x="77.5" y="22" width="80" height="36" rx="8" fill="transparent" stroke="rgba(15, 23, 42, 0.10)" stroke-width="1"/><text x="117.5" y="46" font-family="Inter,sans-serif" font-size="13" fill="rgba(15, 23, 42, 0.72)" text-anchor="middle">&#x2190; Prev</text><rect x="165.5" y="22" width="36" height="36" rx="8" fill="rgb(176, 196, 127)" /><text x="183.5" y="46" font-family="Inter,sans-serif" font-size="14" font-weight="600" fill="white" text-anchor="middle">1</text><rect x="217.5" y="22" width="80" height="36" rx="8" fill="transparent" stroke="rgba(15, 23, 42, 0.10)" stroke-width="1"/><text x="257.5" y="46" font-family="Inter,sans-serif" font-size="13" fill="rgba(15, 23, 42, 0.72)" text-anchor="middle">Next &#x2192;</text></g>
  <g transform="translate(0, 1056)"><line x1="0" y1="0" x2="375" y2="0" stroke="rgba(0, 0, 0, 0.06)" stroke-width="1"/><text x="16" y="16" font-family="Inter,sans-serif" font-size="12" fill="rgba(15, 23, 42, 0.72)">Privacy Policy</text><text x="203.5" y="16" font-family="Inter,sans-serif" font-size="12" fill="rgba(15, 23, 42, 0.72)">Terms of Service</text><text x="16" y="40" font-family="Inter,sans-serif" font-size="12" fill="rgba(15, 23, 42, 0.72)">Safeguarding</text><text x="203.5" y="40" font-family="Inter,sans-serif" font-size="12" fill="rgba(15, 23, 42, 0.72)">Contact Us</text><text x="16" y="64" font-family="Inter,sans-serif" font-size="12" fill="rgba(15, 23, 42, 0.72)">Help Centre</text><text x="187.5" y="104" font-family="Inter,sans-serif" font-size="11" fill="rgba(15, 23, 42, 0.72)" text-anchor="middle">© 2026 iCare Platform. All rights reserved.</text></g>
</svg>