<?xml version="1.0" encoding="UTF-8"?>
<svg xmlns="http://www.w3.org/2000/svg" width="375" height="1128" viewBox="0 0 375 1128">
  <defs>
    <style>
      @import url('https://fonts.googleapis.com/css2?family=Inter:wght@300;400;500;600;700&amp;display=swap');
    </style>
  </defs>
  <rect x="0" y="0" width="375" height="1128" fill="#f7f7f2"/>
  <g transform="translate(0, 0)"><rect width="375" height="64" fill="#ffffff"/><line x1="0" y1="64" x2="375" y2="64" stroke="rgba(0, 0, 0, 0.06)" stroke-width="1"/><rect x="16" y="14" width="80" height="36" rx="8" fill="rgb(176, 196, 127)" opacity="0.25"/><text x="32" y="38" font-family="Inter,sans-serif" font-size="15" font-weight="700" fill="#0f172a">iCare</text><rect x="275" y="16" width="32" height="32" rx="8" fill="#0f172a" opacity="0.06"/><text x="284" y="38" font-family="Inter,sans-serif" font-size="16" fill="#0f172a" opacity="0.6">&#x1F514;</text><circle cx="307" cy="20" r="9" fill="#dc2626"/><text x="303" y="24" font-family="Inter,sans-serif" font-size="10" fill="white" font-weight="700">2</text><rect x="323" y="22" width="20" height="2" rx="1" fill="#0f172a" opacity="0.6"/><rect x="323" y="30" width="20" height="2" rx="1" fill="#0f172a" opacity="0.6"/><rect x="323" y="38" width="20" height="2" rx="1" fill="#0f172a" opacity="0.6"/></g>
  <g transform="translate(0, 64)"><text x="16" y="24" font-family="Inter,sans-serif" font-size="14" font-weight="400" fill="rgb(119, 141, 67)">Dashboard</text><text x="96" y="24" font-family="Inter,sans-serif" font-size="14" fill="rgba(15, 23, 42, 0.72)">&#x203A;</text><text x="112" y="24" font-family="Inter,sans-serif" font-size="14" font-weight="600" fill="#0f172a">Bookings</text></g>
  <g transform="translate(0, 104)"><g transform="translate(16, 8)"><text x="0" y="16" font-family="Inter,sans-serif" font-size="32" fill="#0f172a" font-weight="700">Booking Management</text></g><g transform="translate(16, 40)"><text x="0" y="16" font-family="Inter,sans-serif" font-size="14" fill="#0f172a">View and manage all platform bookings</text></g></g>
  <g transform="translate(0, 176)"><g transform="translate(16, 16)"><rect x="0" y="0" width="343" height="40" rx="8" fill="white" stroke="rgba(15, 23, 42, 0.10)" stroke-width="1"/><text x="12" y="25" font-family="Inter,sans-serif" font-size="13" fill="rgba(15, 23, 42, 0.72)">&#x1F50D; Search by booking ID, user name...</text><rect x="0" y="52" width="343" height="40" rx="8" fill="white" stroke="rgba(15, 23, 42, 0.10)" stroke-width="1"/><text x="12" y="77" font-family="Inter,sans-serif" font-size="13" fill="#0f172a">Status: All &#x25BE;</text><rect x="0" y="104" width="343" height="40" rx="8" fill="white" stroke="rgba(15, 23, 42, 0.10)" stroke-width="1"/><text x="12" y="129" font-family="Inter,sans-serif" font-size="13" fill="#0f172a">Date Range: All &#x25BE;</text><rect x="0" y="156" width="343" height="40" rx="8" fill="white" stroke="rgba(15, 23, 42, 0.10)" stroke-width="1"/><text x="12" y="181" font-family="Inter,sans-serif" font-size="13" fill="#0f172a">Amount: All &#x25BE;</text><rect x="0" y="208" width="165.5" height="40" rx="8" fill="white" stroke="rgba(15, 23, 42, 0.10)" stroke-width="1"/><text x="82.75" y="233" font-family="Inter,sans-serif" font-size="13" fill="rgba(15, 23, 42, 0.72)" text-anchor="middle">Clear Filters</text><rect x="177.5" y="208" width="165.5" height="40" rx="8" fill="rgb(176, 196, 127)"/><text x="260.25" y="233" font-family="Inter,sans-serif" font-size="13" font-weight="600" fill="white" text-anchor="middle">Apply</text></g></g>
  <g transform="translate(0, 456)"><rect x="16" y="16" width="343" height="140" rx="18" fill="rgba(255, 255, 255, 0.55)" stroke="rgba(15, 23, 42, 0.10)" stroke-width="1"/><circle cx="46" cy="54" r="20" fill="#0f172a" opacity="0.12"/><text x="36" y="94" font-family="Inter,sans-serif" font-size="16" font-weight="600" fill="#0f172a">Total Bookings</text><text x="36" y="116" font-family="Inter,sans-serif" font-size="22" font-weight="700" fill="#0f172a">234</text><text x="36" y="136" font-family="Inter,sans-serif" font-size="12" fill="#16a34a" opacity="0.85">↑28% from last month</text><rect x="16" y="16" width="343" height="140" rx="18" fill="rgba(255, 255, 255, 0.55)" stroke="rgba(15, 23, 42, 0.10)" stroke-width="1"/><circle cx="46" cy="54" r="20" fill="#0f172a" opacity="0.12"/><text x="36" y="94" font-family="Inter,sans-serif" font-size="16" font-weight="600" fill="#0f172a">Active Today</text><text x="36" y="116" font-family="Inter,sans-serif" font-size="22" font-weight="700" fill="#0f172a">8</text><text x="36" y="136" font-family="Inter,sans-serif" font-size="12" fill="#0f172a" opacity="0.6">In progress</text><rect x="16" y="16" width="343" height="140" rx="18" fill="rgba(255, 255, 255, 0.55)" stroke="rgba(15, 23, 42, 0.10)" stroke-width="1"/><circle cx="46" cy="54" r="20" fill="#0f172a" opacity="0.12"/><text x="36" y="94" font-family="Inter,sans-serif" font-size="16" font-weight="600" fill="#0f172a">Disputed</text><text x="36" y="116" font-family="Inter,sans-serif" font-size="22" font-weight="700" fill="#0f172a">3</text><text x="36" y="136" font-family="Inter,sans-serif" font-size="12" fill="#0f172a" opacity="0.6">Pending resolution</text><rect x="16" y="16" width="343" height="140" rx="18" fill="rgba(255, 255, 255, 0.55)" stroke="rgba(15, 23, 42, 0.10)" stroke-width="1"/><circle cx="46" cy="54" r="20" fill="#0f172a" opacity="0.12"/><text x="36" y="94" font-family="Inter,sans-serif" font-size="16" font-weight="600" fill="#0f172a">Revenue (30d)</text><text x="36" y="116" font-family="Inter,sans-serif" font-size="22" font-weight="700" fill="#0f172a">£3,120</text><text x="36" y="136" font-family="Inter,sans-serif" font-size="12" fill="#16a34a" opacity="0.85">↑28% from last month</text></g>
  <g transform="translate(0, 628)"><g transform="translate(16, 4)"><text x="0" y="16" font-family="Inter,sans-serif" font-size="14" fill="#0f172a">Showing 1-20 of 234 bookings</text></g></g>
  <g transform="translate(0, 664)"><g transform="translate(16, 0)"><rect x="0" y="0" width="343" height="212" rx="8" fill="white" stroke="rgba(15, 23, 42, 0.10)" stroke-width="1"/><rect x="1" y="1" width="341" height="44" rx="8" fill="#F9FAFB"/><rect x="1" y="36" width="341" height="8" fill="#F9FAFB"/><text x="12" y="27" font-family="Inter,sans-serif" font-size="12" font-weight="600" fill="rgba(15, 23, 42, 0.72)">Booking ID</text><text x="65.16666666666666" y="27" font-family="Inter,sans-serif" font-size="12" font-weight="600" fill="rgba(15, 23, 42, 0.72)">Care Receiver</text><text x="118.33333333333333" y="27" font-family="Inter,sans-serif" font-size="12" font-weight="600" fill="rgba(15, 23, 42, 0.72)">Caregiver</text><text x="171.5" y="27" font-family="Inter,sans-serif" font-size="12" font-weight="600" fill="rgba(15, 23, 42, 0.72)">Date</text><line x1="0" y1="100" x2="343" y2="100" stroke="rgba(15, 23, 42, 0.10)" stroke-width="0.5"/><text x="12" y="76" font-family="Inter,sans-serif" font-size="13" fill="#2563EB">#7825</text><text x="65.16666666666666" y="76" font-family="Inter,sans-serif" font-size="13" fill="#0f172a">Mary K.</text><text x="118.33333333333333" y="76" font-family="Inter,sans-serif" font-size="13" fill="#0f172a">John S.</text><text x="171.5" y="76" font-family="Inter,sans-serif" font-size="13" fill="#0f172a">23/02/2026</text><rect x="1" y="100" width="341" height="56" fill="#FAFAFA"/><line x1="0" y1="156" x2="343" y2="156" stroke="rgba(15, 23, 42, 0.10)" stroke-width="0.5"/><text x="12" y="132" font-family="Inter,sans-serif" font-size="13" fill="#2563EB">#7824</text><text x="65.16666666666666" y="132" font-family="Inter,sans-serif" font-size="13" fill="#0f172a">Jane D.</text><text x="118.33333333333333" y="132" font-family="Inter,sans-serif" font-size="13" fill="#0f172a">Anna C.</text><text x="171.5" y="132" font-family="Inter,sans-serif" font-size="13" fill="#0f172a">23/02/2026</text><line x1="0" y1="212" x2="343" y2="212" stroke="rgba(15, 23, 42, 0.10)" stroke-width="0.5"/><text x="12" y="188" font-family="Inter,sans-serif" font-size="13" fill="#2563EB">#7821</text><text x="65.16666666666666" y="188" font-family="Inter,sans-serif" font-size="13" fill="#0f172a">Jane D.</text><text x="118.33333333333333" y="188" font-family="Inter,sans-serif" font-size="13" fill="#0f172a">Mary K.</text><text x="171.5" y="188" font-family="Inter,sans-serif" font-size="13" fill="#0f172a">22/02/2026</text><text x="12" y="232" font-family="Inter,sans-serif" font-size="12" fill="rgba(15, 23, 42, 0.72)">Showing 1-20 of 234 bookings</text></g></g>
  <g transform="translate(0, 924)"><rect x="-164.5" y="22" width="80" height="36" rx="8" fill="transparent" stroke="rgba(15, 23, 42, 0.10)" stroke-width="1"/><text x="-124.5" y="46" font-family="Inter,sans-serif" font-size="13" fill="rgba(15, 23, 42, 0.72)" text-anchor="middle">&#x2190; Prev</text><rect x="-76.5" y="22" width="36" height="36" rx="8" fill="rgb(176, 196, 127)" /><text x="-58.5" y="46" font-family="Inter,sans-serif" font-size="14" font-weight="600" fill="white" text-anchor="middle">1</text><rect x="-32.5" y="22" width="36" height="36" rx="8" fill="transparent" stroke="rgba(15, 23, 42, 0.10)" stroke-width="1"/><text x="-14.5" y="46" font-family="Inter,sans-serif" font-size="14" font-weight="400" fill="#0f172a" text-anchor="middle">2</text><rect x="11.5" y="22" width="36" height="36" rx="8" fill="transparent" stroke="rgba(15, 23, 42, 0.10)" stroke-width="1"/><text x="29.5" y="46" font-family="Inter,sans-serif" font-size="14" font-weight="400" fill="#0f172a" text-anchor="middle">3</text><rect x="55.5" y="22" width="36" height="36" rx="8" fill="transparent" stroke="rgba(15, 23, 42, 0.10)" stroke-width="1"/><text x="73.5" y="46" font-family="Inter,sans-serif" font-size="14" font-weight="400" fill="#0f172a" text-anchor="middle">4</text><rect x="99.5" y="22" width="36" height="36" rx="8" fill="transparent" stroke="rgba(15, 23, 42, 0.10)" stroke-width="1"/><text x="117.5" y="46" font-family="Inter,sans-serif" font-size="14" font-weight="400" fill="#0f172a" text-anchor="middle">5</text><rect x="459.5" y="22" width="80" height="36" rx="8" fill="transparent" stroke="rgba(15, 23, 42, 0.10)" stroke-width="1"/><text x="499.5" y="46" font-family="Inter,sans-serif" font-size="13" fill="rgba(15, 23, 42, 0.72)" text-anchor="middle">Next &#x2192;</text></g>
  <g transform="translate(0, 1004)"><line x1="0" y1="0" x2="375" y2="0" stroke="rgba(0, 0, 0, 0.06)" stroke-width="1"/><text x="16" y="16" font-family="Inter,sans-serif" font-size="12" fill="rgba(15, 23, 42, 0.72)">Privacy Policy</text><text x="203.5" y="16" font-family="Inter,sans-serif" font-size="12" fill="rgba(15, 23, 42, 0.72)">Terms of Service</text><text x="16" y="40" font-family="Inter,sans-serif" font-size="12" fill="rgba(15, 23, 42, 0.72)">Safeguarding</text><text x="203.5" y="40" font-family="Inter,sans-serif" font-size="12" fill="rgba(15, 23, 42, 0.72)">Contact Us</text><text x="16" y="64" font-family="Inter,sans-serif" font-size="12" fill="rgba(15, 23, 42, 0.72)">Help Centre</text><text x="187.5" y="104" font-family="Inter,sans-serif" font-size="11" fill="rgba(15, 23, 42, 0.72)" text-anchor="middle">© 2026 iCare Platform. All rights reserved.</text></g>
</svg>